{
    "asset" : {
        "generator" : "Khronos glTF Blender I/O v1.5.17",
        "version" : "2.0"
    },
    "scene" : 0,
    "scenes" : [
        {
            "name" : "Scene",
            "nodes" : [
                0,
                1,
                2,
                3,
                4,
                5
            ]
        }
    ],
    "nodes" : [
        {
            "mesh" : 0,
            "name" : "1ButtomBun",
            "translation" : [
                0,
                1,
                0
            ]
        },
        {
            "mesh" : 1,
            "name" : "2Meat",
            "scale" : [
                1,
                0.32325243949890137,
                1
            ],
            "translation" : [
                0,
                0.5,
                0
            ]
        },
        {
            "mesh" : 2,
            "name" : "3Cheese",
            "translation" : [
                0,
                0.4999999701976776,
                0
            ]
        },
        {
            "mesh" : 3,
            "name" : "6TopBun",
            "rotation" : [
                0,
                0,
                -1,
                -4.371138828673793e-08
            ],
            "scale" : [
                1,
                1.4378488063812256,
                1
            ],
            "translation" : [
                0,
                -0.3999999463558197,
                0
            ]
        },
        {
            "mesh" : 4,
            "name" : "4Meat",
            "scale" : [
                1,
                0.32325243949890137,
                1
            ],
            "translation" : [
                0,
                0.699999988079071,
                0
            ]
        },
        {
            "mesh" : 5,
            "name" : "5Cheese",
            "translation" : [
                0,
                0.699999988079071,
                0
            ]
        }
    ],
    "materials" : [
        {
            "doubleSided" : true,
            "name" : "BunMaterial",
            "pbrMetallicRoughness" : {
                "baseColorFactor" : [
                    0.8000000715255737,
                    0.17753444612026215,
                    0.028884269297122955,
                    1
                ],
                "metallicFactor" : 0
            }
        },
        {
            "doubleSided" : true,
            "name" : "Meat",
            "pbrMetallicRoughness" : {
                "baseColorFactor" : [
                    0.26676493883132935,
                    0.0327225998044014,
                    0,
                    1
                ],
                "metallicFactor" : 0
            }
        },
        {
            "doubleSided" : true,
            "name" : "Cheese",
            "pbrMetallicRoughness" : {
                "baseColorFactor" : [
                    1,
                    0.5133302211761475,
                    0,
                    1
                ],
                "metallicFactor" : 0,
                "roughnessFactor" : 0.1387755125761032
            }
        }
    ],
    "meshes" : [
        {
            "name" : "Cube.002",
            "primitives" : [
                {
                    "attributes" : {
                        "POSITION" : 0,
                        "NORMAL" : 1
                    },
                    "indices" : 2,
                    "material" : 0
                }
            ]
        },
        {
            "name" : "Cube.003",
            "primitives" : [
                {
                    "attributes" : {
                        "POSITION" : 3,
                        "NORMAL" : 4
                    },
                    "indices" : 2,
                    "material" : 1
                }
            ]
        },
        {
            "name" : "Plane",
            "primitives" : [
                {
                    "attributes" : {
                        "POSITION" : 5,
                        "NORMAL" : 6
                    },
                    "indices" : 7,
                    "material" : 2
                }
            ]
        },
        {
            "name" : "Cube.004",
            "primitives" : [
                {
                    "attributes" : {
                        "POSITION" : 8,
                        "NORMAL" : 9
                    },
                    "indices" : 10,
                    "material" : 0
                }
            ]
        },
        {
            "name" : "Cube.005",
            "primitives" : [
                {
                    "attributes" : {
                        "POSITION" : 11,
                        "NORMAL" : 12
                    },
                    "indices" : 2,
                    "material" : 1
                }
            ]
        },
        {
            "name" : "Plane.001",
            "primitives" : [
                {
                    "attributes" : {
                        "POSITION" : 13,
                        "NORMAL" : 14
                    },
                    "indices" : 7,
                    "material" : 2
                }
            ]
        }
    ],
    "accessors" : [
        {
            "bufferView" : 0,
            "componentType" : 5126,
            "count" : 3586,
            "max" : [
                0.9166668057441711,
                -0.7450293302536011,
                0.9166668057441711
            ],
            "min" : [
                -0.9166668057441711,
                -0.987963080406189,
                -0.9166668057441711
            ],
            "type" : "VEC3"
        },
        {
            "bufferView" : 1,
            "componentType" : 5126,
            "count" : 3586,
            "type" : "VEC3"
        },
        {
            "bufferView" : 2,
            "componentType" : 5123,
            "count" : 21504,
            "type" : "SCALAR"
        },
        {
            "bufferView" : 3,
            "componentType" : 5126,
            "count" : 3586,
            "max" : [
                0.9067918062210083,
                -0.01582431234419346,
                0.909578263759613
            ],
            "min" : [
                -0.9067918062210083,
                -0.9741449356079102,
                -0.909578263759613
            ],
            "type" : "VEC3"
        },
        {
            "bufferView" : 4,
            "componentType" : 5126,
            "count" : 3586,
            "type" : "VEC3"
        },
        {
            "bufferView" : 5,
            "componentType" : 5126,
            "count" : 714,
            "max" : [
                0.8252465128898621,
                0.08202970772981644,
                0.7938154935836792
            ],
            "min" : [
                -0.8252465128898621,
                -0.16322115063667297,
                -0.7886660099029541
            ],
            "type" : "VEC3"
        },
        {
            "bufferView" : 6,
            "componentType" : 5126,
            "count" : 714,
            "type" : "VEC3"
        },
        {
            "bufferView" : 7,
            "componentType" : 5123,
            "count" : 3456,
            "type" : "SCALAR"
        },
        {
            "bufferView" : 8,
            "componentType" : 5126,
            "count" : 3687,
            "max" : [
                0.900553286075592,
                -0.7450333833694458,
                0.9057938456535339
            ],
            "min" : [
                -0.900553286075592,
                -1.0799390077590942,
                -0.9057938456535339
            ],
            "type" : "VEC3"
        },
        {
            "bufferView" : 9,
            "componentType" : 5126,
            "count" : 3687,
            "type" : "VEC3"
        },
        {
            "bufferView" : 10,
            "componentType" : 5123,
            "count" : 21504,
            "type" : "SCALAR"
        },
        {
            "bufferView" : 11,
            "componentType" : 5126,
            "count" : 3586,
            "max" : [
                0.9067918062210083,
                -0.01582431234419346,
                0.909578263759613
            ],
            "min" : [
                -0.9067918062210083,
                -0.9741449356079102,
                -0.909578263759613
            ],
            "type" : "VEC3"
        },
        {
            "bufferView" : 12,
            "componentType" : 5126,
            "count" : 3586,
            "type" : "VEC3"
        },
        {
            "bufferView" : 13,
            "componentType" : 5126,
            "count" : 714,
            "max" : [
                0.8252465128898621,
                0.08202970772981644,
                0.7938154935836792
            ],
            "min" : [
                -0.8252465128898621,
                -0.16322115063667297,
                -0.7886660099029541
            ],
            "type" : "VEC3"
        },
        {
            "bufferView" : 14,
            "componentType" : 5126,
            "count" : 714,
            "type" : "VEC3"
        }
    ],
    "bufferViews" : [
        {
            "buffer" : 0,
            "byteLength" : 43032,
            "byteOffset" : 0
        },
        {
            "buffer" : 0,
            "byteLength" : 43032,
            "byteOffset" : 43032
        },
        {
            "buffer" : 0,
            "byteLength" : 43008,
            "byteOffset" : 86064
        },
        {
            "buffer" : 0,
            "byteLength" : 43032,
            "byteOffset" : 129072
        },
        {
            "buffer" : 0,
            "byteLength" : 43032,
            "byteOffset" : 172104
        },
        {
            "buffer" : 0,
            "byteLength" : 8568,
            "byteOffset" : 215136
        },
        {
            "buffer" : 0,
            "byteLength" : 8568,
            "byteOffset" : 223704
        },
        {
            "buffer" : 0,
            "byteLength" : 6912,
            "byteOffset" : 232272
        },
        {
            "buffer" : 0,
            "byteLength" : 44244,
            "byteOffset" : 239184
        },
        {
            "buffer" : 0,
            "byteLength" : 44244,
            "byteOffset" : 283428
        },
        {
            "buffer" : 0,
            "byteLength" : 43008,
            "byteOffset" : 327672
        },
        {
            "buffer" : 0,
            "byteLength" : 43032,
            "byteOffset" : 370680
        },
        {
            "buffer" : 0,
            "byteLength" : 43032,
            "byteOffset" : 413712
        },
        {
            "buffer" : 0,
            "byteLength" : 8568,
            "byteOffset" : 456744
        },
        {
            "buffer" : 0,
            "byteLength" : 8568,
            "byteOffset" : 465312
        }
    ],
    "buffers" : [
        {
            "byteLength" : 473880,
            "uri" : "data:application/octet-stream;base64,"
        }
    ]
}
